<?xml version="1.0" encoding="UTF-8" standalone="no"?>
<!DOCTYPE svg PUBLIC "-//W3C//DTD SVG 1.1//EN"
 "http://www.w3.org/Graphics/SVG/1.1/DTD/svg11.dtd">
<!-- Generated by graphviz version 2.36.0 (20140111.2315)
 -->
<!-- Title: G Pages: 1 -->
<svg width="653pt" height="379pt"
 viewBox="0.00 0.00 653.20 379.20" xmlns="http://www.w3.org/2000/svg" xmlns:xlink="http://www.w3.org/1999/xlink">
<g id="graph0" class="graph" transform="scale(1 1) rotate(0) translate(21.6 357.6)">
<title>G</title>
<polygon fill="#111111" stroke="none" points="-21.6,21.6 -21.6,-357.6 631.6,-357.6 631.6,21.6 -21.6,21.6"/>
<!-- bind.ts -->
<g id="node1" class="node"><title>bind.ts</title>
<path fill="none" stroke="#c6c5fe" d="M398.333,-335.5C398.333,-335.5 355.667,-335.5 355.667,-335.5 351.833,-335.5 348,-331.667 348,-327.833 348,-327.833 348,-320.167 348,-320.167 348,-316.333 351.833,-312.5 355.667,-312.5 355.667,-312.5 398.333,-312.5 398.333,-312.5 402.167,-312.5 406,-316.333 406,-320.167 406,-320.167 406,-327.833 406,-327.833 406,-331.667 402.167,-335.5 398.333,-335.5"/>
<text text-anchor="middle" x="377" y="-320.3" font-family="Arial" font-size="14.00" fill="#c6c5fe">bind.ts</text>
</g>
<!-- error.ts -->
<g id="node2" class="node"><title>error.ts</title>
<path fill="none" stroke="#c6c5fe" d="M499.833,-219.5C499.833,-219.5 454.167,-219.5 454.167,-219.5 450.333,-219.5 446.5,-215.667 446.5,-211.833 446.5,-211.833 446.5,-204.167 446.5,-204.167 446.5,-200.333 450.333,-196.5 454.167,-196.5 454.167,-196.5 499.833,-196.5 499.833,-196.5 503.667,-196.5 507.5,-200.333 507.5,-204.167 507.5,-204.167 507.5,-211.833 507.5,-211.833 507.5,-215.667 503.667,-219.5 499.833,-219.5"/>
<text text-anchor="middle" x="477" y="-204.3" font-family="Arial" font-size="14.00" fill="#c6c5fe">error.ts</text>
</g>
<!-- bind.ts&#45;&gt;error.ts -->
<g id="edge1" class="edge"><title>bind.ts&#45;&gt;error.ts</title>
<path fill="none" stroke="#757575" d="M387.755,-312.453C404.558,-292.564 439.131,-251.64 459.661,-227.34"/>
<polygon fill="#757575" stroke="#757575" points="462.505,-229.398 466.285,-219.5 457.157,-224.88 462.505,-229.398"/>
</g>
<!-- types.ts -->
<g id="node3" class="node"><title>types.ts</title>
<path fill="none" stroke="#cfffac" d="M601.833,-160.5C601.833,-160.5 552.167,-160.5 552.167,-160.5 548.333,-160.5 544.5,-156.667 544.5,-152.833 544.5,-152.833 544.5,-145.167 544.5,-145.167 544.5,-141.333 548.333,-137.5 552.167,-137.5 552.167,-137.5 601.833,-137.5 601.833,-137.5 605.667,-137.5 609.5,-141.333 609.5,-145.167 609.5,-145.167 609.5,-152.833 609.5,-152.833 609.5,-156.667 605.667,-160.5 601.833,-160.5"/>
<text text-anchor="middle" x="577" y="-145.3" font-family="Arial" font-size="14.00" fill="#cfffac">types.ts</text>
</g>
<!-- bind.ts&#45;&gt;types.ts -->
<g id="edge2" class="edge"><title>bind.ts&#45;&gt;types.ts</title>
<path fill="none" stroke="#757575" d="M406.155,-325.423C434.752,-325.39 478.865,-321.084 508,-298 548.848,-265.636 566.062,-203.24 572.545,-170.403"/>
<polygon fill="#757575" stroke="#757575" points="576.002,-170.952 574.351,-160.487 569.115,-169.698 576.002,-170.952"/>
</g>
<!-- error.ts&#45;&gt;types.ts -->
<g id="edge15" class="edge"><title>error.ts&#45;&gt;types.ts</title>
<path fill="none" stroke="#757575" d="M496.895,-196.624C511.537,-187.809 532.035,-175.469 548.496,-165.559"/>
<polygon fill="#757575" stroke="#757575" points="550.401,-168.497 557.163,-160.341 546.79,-162.5 550.401,-168.497"/>
</g>
<!-- check.ts -->
<g id="node4" class="node"><title>check.ts</title>
<path fill="none" stroke="#c6c5fe" d="M289.333,-277.5C289.333,-277.5 236.667,-277.5 236.667,-277.5 232.833,-277.5 229,-273.667 229,-269.833 229,-269.833 229,-262.167 229,-262.167 229,-258.333 232.833,-254.5 236.667,-254.5 236.667,-254.5 289.333,-254.5 289.333,-254.5 293.167,-254.5 297,-258.333 297,-262.167 297,-262.167 297,-269.833 297,-269.833 297,-273.667 293.167,-277.5 289.333,-277.5"/>
<text text-anchor="middle" x="263" y="-262.3" font-family="Arial" font-size="14.00" fill="#c6c5fe">check.ts</text>
</g>
<!-- check.ts&#45;&gt;bind.ts -->
<g id="edge3" class="edge"><title>check.ts&#45;&gt;bind.ts</title>
<path fill="none" stroke="#757575" d="M285.861,-277.321C302.743,-286.063 326.319,-298.273 345.126,-308.012"/>
<polygon fill="#757575" stroke="#757575" points="343.705,-311.217 354.195,-312.708 346.924,-305.001 343.705,-311.217"/>
</g>
<!-- check.ts&#45;&gt;error.ts -->
<g id="edge4" class="edge"><title>check.ts&#45;&gt;error.ts</title>
<path fill="none" stroke="#757575" d="M297.125,-256.938C334.807,-246.628 396.304,-229.804 436.464,-218.816"/>
<polygon fill="#757575" stroke="#757575" points="437.465,-222.171 446.187,-216.156 435.618,-215.419 437.465,-222.171"/>
</g>
<!-- check.ts&#45;&gt;types.ts -->
<g id="edge5" class="edge"><title>check.ts&#45;&gt;types.ts</title>
<path fill="none" stroke="#757575" d="M297.014,-268.391C346.517,-270.404 441.278,-268.037 508,-228 532.181,-213.49 552.121,-187.371 564.022,-169.154"/>
<polygon fill="#757575" stroke="#757575" points="567.134,-170.78 569.492,-160.451 561.207,-167.055 567.134,-170.78"/>
</g>
<!-- compile.ts -->
<g id="node5" class="node"><title>compile.ts</title>
<path fill="none" stroke="#c6c5fe" d="M174.333,-159.5C174.333,-159.5 109.667,-159.5 109.667,-159.5 105.833,-159.5 102,-155.667 102,-151.833 102,-151.833 102,-144.167 102,-144.167 102,-140.333 105.833,-136.5 109.667,-136.5 109.667,-136.5 174.333,-136.5 174.333,-136.5 178.167,-136.5 182,-140.333 182,-144.167 182,-144.167 182,-151.833 182,-151.833 182,-155.667 178.167,-159.5 174.333,-159.5"/>
<text text-anchor="middle" x="142" y="-144.3" font-family="Arial" font-size="14.00" fill="#c6c5fe">compile.ts</text>
</g>
<!-- compile.ts&#45;&gt;bind.ts -->
<g id="edge6" class="edge"><title>compile.ts&#45;&gt;bind.ts</title>
<path fill="none" stroke="#757575" d="M145.77,-159.354C152.868,-185.932 174.301,-252.469 218,-286 252.686,-312.616 303.276,-320.933 337.805,-323.352"/>
<polygon fill="#757575" stroke="#757575" points="337.788,-326.857 347.97,-323.927 338.183,-319.868 337.788,-326.857"/>
</g>
<!-- compile.ts&#45;&gt;error.ts -->
<g id="edge9" class="edge"><title>compile.ts&#45;&gt;error.ts</title>
<path fill="none" stroke="#757575" d="M172.56,-159.274C186.22,-164.114 202.759,-169.459 218,-173 294.045,-190.669 384.915,-200.427 435.993,-204.907"/>
<polygon fill="#757575" stroke="#757575" points="436.007,-208.421 446.268,-205.784 436.602,-201.446 436.007,-208.421"/>
</g>
<!-- compile.ts&#45;&gt;types.ts -->
<g id="edge13" class="edge"><title>compile.ts&#45;&gt;types.ts</title>
<path fill="none" stroke="#757575" d="M182.359,-147.612C234.44,-147.154 329.113,-146.513 410,-147 452.26,-147.255 500.569,-147.874 534.134,-148.356"/>
<polygon fill="#757575" stroke="#757575" points="534.436,-151.861 544.487,-148.507 534.539,-144.862 534.436,-151.861"/>
</g>
<!-- compile.ts&#45;&gt;check.ts -->
<g id="edge7" class="edge"><title>compile.ts&#45;&gt;check.ts</title>
<path fill="none" stroke="#757575" d="M154.41,-159.314C174.882,-179.614 218.04,-222.41 243.027,-247.187"/>
<polygon fill="#757575" stroke="#757575" points="240.884,-249.991 250.449,-254.547 245.813,-245.02 240.884,-249.991"/>
</g>
<!-- emit.ts -->
<g id="node6" class="node"><title>emit.ts</title>
<path fill="none" stroke="#c6c5fe" d="M498.333,-101.5C498.333,-101.5 455.667,-101.5 455.667,-101.5 451.833,-101.5 448,-97.6667 448,-93.8333 448,-93.8333 448,-86.1667 448,-86.1667 448,-82.3333 451.833,-78.5 455.667,-78.5 455.667,-78.5 498.333,-78.5 498.333,-78.5 502.167,-78.5 506,-82.3333 506,-86.1667 506,-86.1667 506,-93.8333 506,-93.8333 506,-97.6667 502.167,-101.5 498.333,-101.5"/>
<text text-anchor="middle" x="477" y="-86.3" font-family="Arial" font-size="14.00" fill="#c6c5fe">emit.ts</text>
</g>
<!-- compile.ts&#45;&gt;emit.ts -->
<g id="edge8" class="edge"><title>compile.ts&#45;&gt;emit.ts</title>
<path fill="none" stroke="#757575" d="M163.011,-136.709C177.742,-128.956 198.515,-119.166 218,-114 294.116,-93.8177 386.769,-90.0146 437.754,-89.6275"/>
<polygon fill="#757575" stroke="#757575" points="437.993,-93.1268 447.981,-89.5921 437.969,-86.1268 437.993,-93.1268"/>
</g>
<!-- lex.ts -->
<g id="node7" class="node"><title>lex.ts</title>
<path fill="none" stroke="#c6c5fe" d="M396.333,-61.5C396.333,-61.5 357.667,-61.5 357.667,-61.5 353.833,-61.5 350,-57.6667 350,-53.8333 350,-53.8333 350,-46.1667 350,-46.1667 350,-42.3333 353.833,-38.5 357.667,-38.5 357.667,-38.5 396.333,-38.5 396.333,-38.5 400.167,-38.5 404,-42.3333 404,-46.1667 404,-46.1667 404,-53.8333 404,-53.8333 404,-57.6667 400.167,-61.5 396.333,-61.5"/>
<text text-anchor="middle" x="377" y="-46.3" font-family="Arial" font-size="14.00" fill="#c6c5fe">lex.ts</text>
</g>
<!-- compile.ts&#45;&gt;lex.ts -->
<g id="edge10" class="edge"><title>compile.ts&#45;&gt;lex.ts</title>
<path fill="none" stroke="#757575" d="M151.224,-136.575C163.671,-120.23 188.946,-90.5413 218,-76 256.583,-56.6894 306.457,-51.237 339.749,-49.937"/>
<polygon fill="#757575" stroke="#757575" points="340.044,-53.4302 349.941,-49.6486 339.846,-46.433 340.044,-53.4302"/>
</g>
<!-- parse.ts -->
<g id="node8" class="node"><title>parse.ts</title>
<path fill="none" stroke="#c6c5fe" d="M402.333,-179.5C402.333,-179.5 351.667,-179.5 351.667,-179.5 347.833,-179.5 344,-175.667 344,-171.833 344,-171.833 344,-164.167 344,-164.167 344,-160.333 347.833,-156.5 351.667,-156.5 351.667,-156.5 402.333,-156.5 402.333,-156.5 406.167,-156.5 410,-160.333 410,-164.167 410,-164.167 410,-171.833 410,-171.833 410,-175.667 406.167,-179.5 402.333,-179.5"/>
<text text-anchor="middle" x="377" y="-164.3" font-family="Arial" font-size="14.00" fill="#c6c5fe">parse.ts</text>
</g>
<!-- compile.ts&#45;&gt;parse.ts -->
<g id="edge11" class="edge"><title>compile.ts&#45;&gt;parse.ts</title>
<path fill="none" stroke="#757575" d="M182.262,-151.37C224.197,-154.97 290.433,-160.655 333.552,-164.356"/>
<polygon fill="#757575" stroke="#757575" points="333.457,-167.861 343.72,-165.229 334.056,-160.887 333.457,-167.861"/>
</g>
<!-- transform.ts -->
<g id="node9" class="node"><title>transform.ts</title>
<path fill="none" stroke="#c6c5fe" d="M300.333,-22.5C300.333,-22.5 225.667,-22.5 225.667,-22.5 221.833,-22.5 218,-18.6667 218,-14.8333 218,-14.8333 218,-7.16667 218,-7.16667 218,-3.33333 221.833,0.5 225.667,0.5 225.667,0.5 300.333,0.5 300.333,0.5 304.167,0.5 308,-3.33333 308,-7.16667 308,-7.16667 308,-14.8333 308,-14.8333 308,-18.6667 304.167,-22.5 300.333,-22.5"/>
<text text-anchor="middle" x="263" y="-7.3" font-family="Arial" font-size="14.00" fill="#c6c5fe">transform.ts</text>
</g>
<!-- compile.ts&#45;&gt;transform.ts -->
<g id="edge12" class="edge"><title>compile.ts&#45;&gt;transform.ts</title>
<path fill="none" stroke="#757575" d="M148.695,-136.553C159.75,-115.184 185.875,-68.6177 218,-38 221.795,-34.3827 226.154,-31.0087 230.62,-27.9557"/>
<polygon fill="#757575" stroke="#757575" points="232.65,-30.8124 239.221,-22.5007 228.901,-24.9011 232.65,-30.8124"/>
</g>
<!-- emit.ts&#45;&gt;types.ts -->
<g id="edge14" class="edge"><title>emit.ts&#45;&gt;types.ts</title>
<path fill="none" stroke="#757575" d="M496.895,-101.376C511.537,-110.191 532.035,-122.531 548.496,-132.441"/>
<polygon fill="#757575" stroke="#757575" points="546.79,-135.5 557.163,-137.659 550.401,-129.503 546.79,-135.5"/>
</g>
<!-- lex.ts&#45;&gt;types.ts -->
<g id="edge17" class="edge"><title>lex.ts&#45;&gt;types.ts</title>
<path fill="none" stroke="#757575" d="M404.127,-48.5698C431.665,-48.2113 475.475,-50.9893 508,-69 533.237,-82.9751 553.259,-110.246 564.869,-129.032"/>
<polygon fill="#757575" stroke="#757575" points="561.909,-130.903 570.017,-137.722 567.931,-127.335 561.909,-130.903"/>
</g>
<!-- parse.ts&#45;&gt;error.ts -->
<g id="edge18" class="edge"><title>parse.ts&#45;&gt;error.ts</title>
<path fill="none" stroke="#757575" d="M405.821,-179.355C416.062,-183.536 427.832,-188.34 438.771,-192.804"/>
<polygon fill="#757575" stroke="#757575" points="437.529,-196.078 448.11,-196.616 440.174,-189.597 437.529,-196.078"/>
</g>
<!-- parse.ts&#45;&gt;types.ts -->
<g id="edge19" class="edge"><title>parse.ts&#45;&gt;types.ts</title>
<path fill="none" stroke="#757575" d="M410.253,-164.905C444.108,-161.656 497.457,-156.537 534.447,-152.987"/>
<polygon fill="#757575" stroke="#757575" points="534.796,-156.47 544.416,-152.031 534.127,-149.502 534.796,-156.47"/>
</g>
<!-- transform.ts&#45;&gt;types.ts -->
<g id="edge20" class="edge"><title>transform.ts&#45;&gt;types.ts</title>
<path fill="none" stroke="#757575" d="M308.445,-6.86006C360.581,-4.26467 447.557,-7.20773 508,-47 537.886,-66.6752 557.846,-104.499 568.027,-128.149"/>
<polygon fill="#757575" stroke="#757575" points="564.875,-129.686 571.906,-137.612 571.352,-127.032 564.875,-129.686"/>
</g>
<!-- index.ts -->
<g id="node10" class="node"><title>index.ts</title>
<path fill="none" stroke="#c6c5fe" d="M57.8333,-159.5C57.8333,-159.5 8.16667,-159.5 8.16667,-159.5 4.33333,-159.5 0.5,-155.667 0.5,-151.833 0.5,-151.833 0.5,-144.167 0.5,-144.167 0.5,-140.333 4.33333,-136.5 8.16667,-136.5 8.16667,-136.5 57.8333,-136.5 57.8333,-136.5 61.6667,-136.5 65.5,-140.333 65.5,-144.167 65.5,-144.167 65.5,-151.833 65.5,-151.833 65.5,-155.667 61.6667,-159.5 57.8333,-159.5"/>
<text text-anchor="middle" x="33" y="-144.3" font-family="Arial" font-size="14.00" fill="#c6c5fe">index.ts</text>
</g>
<!-- index.ts&#45;&gt;compile.ts -->
<g id="edge16" class="edge"><title>index.ts&#45;&gt;compile.ts</title>
<path fill="none" stroke="#757575" d="M65.5248,-148C73.6774,-148 82.654,-148 91.485,-148"/>
<polygon fill="#757575" stroke="#757575" points="91.7268,-151.5 101.727,-148 91.7268,-144.5 91.7268,-151.5"/>
</g>
</g>
</svg>
